<?xml version="1.0" encoding="UTF-8"?>
<svg xmlns="http://www.w3.org/2000/svg" viewBox="0 0 4096 4096">
  <defs>
    <style>
      .cls-1 {
        fill: #2a2060;
      }

      .cls-1, .cls-2 {
        stroke: #000;
        stroke-miterlimit: 10;
        stroke-width: 15px;
      }

      .cls-2 {
        fill: #fff;
      }
    </style>
  </defs>
  <g id="Layer_3" data-name="Layer 3">
    <path class="cls-1" d="M247.83,3394.77h463.44l971.78-2248.12h1051.51c410.82,0,508.88,716.91,0,716.91h-550.6s202.47,440.58,202.47,440.58h218.94l692.61,1090.71h560.98l-745.84-1163.41c858.7-396.29,576-1523.56-398.87-1523.56h-1303.95S247.83,3394.77,247.83,3394.77Z"/>
  </g>
  <g id="Layer_2" data-name="Layer 2">
    <polygon class="cls-2" points="1660.04 707.91 1194.69 707.91 2401.02 3395.32 2885.88 3395.32 1660.04 707.91"/>
    <path class="cls-2" d="M1839.75,2265.19l150.07,336.26-1240.79-364.53-260.83,603.31s16.88-342.76-65.73-585.88-196.35-456.47-196.35-456.47l1613.63,467.3Z"/>
  </g>
</svg>